# AST/ASF file generated using VICON BodyLanguage
# -----------------------------------------------
:version 1.10
:name VICON
:units
  mass 1.0
  length 0.45
  angle deg
:documentation
   .ast/.asf automatically generated from VICON data using
   VICON BodyBuilder and BodyLanguage model FoxedUp or BRILLIANT.MOD
:root
   order TX TY TZ RX RY RZ
   axis XYZ
   position 0 0 0  
   orientation 0 0 0 
:bonedata
  begin
     id 1 
     name lhipjoint
     direction 0.70531 -0.63749 0.310071 
     length 2.59589 
     axis 0 0 0  XYZ
  end
  begin
     id 2 
     name lfemur
     direction 0.34202 -0.939693 0  
     length 6.19797  
     axis 0 0 20  XYZ
    dof rx ry rz
    limits (-160.0 20.0)
           (-70.0 70.0)
           (-60.0 70.0)
  end
  begin
     id 3 
     name ltibia
     direction 0.34202 -0.939693 0   
     length 7.80054   
     axis 0 0 20   XYZ
    dof rx
    limits (-10.0 170.0)
  end
  begin
     id 4 
     name lfoot
     direction 0.0828572 -0.227648 0.970212   
     length 1.88124   
     axis -90 7.62852e-016 20   XYZ
    dof rx rz
    limits (-45.0 90.0)
           (-70.0 20.0)
  end
  begin
     id 5 
     name ltoes
     direction 1.53544e-011 -4.219e-011 1   
     length 0.948015   
     axis -90 7.62852e-016 20   XYZ
    dof rx
    limits (-90.0 20.0)
  end
  begin
     id 6 
     name rhipjoint
     direction -0.730062 -0.614543 0.29891   
     length 2.69282  
     axis 0 0 0  XYZ 
  end
  begin
     id 7 
     name rfemur
     direction -0.34202 -0.939693 0   
     length 5.86298   
     axis 0 0 -20   XYZ
    dof rx ry rz
    limits (-160.0 20.0)
           (-70.0 70.0)
           (-70.0 60.0)
  end
  begin
     id 8 
     name rtibia
     direction -0.34202 -0.939693 0   
     length 7.72374   
     axis 0 0 -20   XYZ
    dof rx
    limits (-10.0 170.0)
 end
 begin
     id 9 
     name rfoot
     direction -0.0967421 -0.265797 0.959163   
     length 2.02368  
     axis -90 -7.62852e-016 -20   XYZ
    dof rx rz
    limits (-45.0 90.0)
           (-20.0 70.0)
  end
  begin
     id 10 
     name rtoes
     direction -1.53524e-011 -4.21768e-011 1   
     length 1.01373   
     axis -90 -7.62852e-016 -20   XYZ
    dof rx
    limits (-90.0 20.0)
  end
  begin
     id 11 
     name lowerback
     direction 0.00561702 0.992801 -0.119643   
     length 2.02816   
     axis 0 0 0   XYZ
    dof rx ry rz
    limits (-20.0 45.0)
           (-30.0 30.0)
           (-30.0 30.0)
  end
  begin
     id 12 
     name upperback
     direction 0.00155544 0.995735 -0.0922509   
     length 2.02265   
     axis 0 0 0   XYZ
    dof rx ry rz
    limits (-20.0 45.0)
           (-30.0 30.0)
           (-30.0 30.0)
  end
  begin
     id 13 
     name thorax
     direction -0.000937535 0.999317 -0.0369292   
     length 2.04823   
     axis 0 0 0   XYZ
    dof rx ry rz
    limits (-20.0 45.0)
           (-30.0 30.0)
           (-30.0 30.0)
  end
  begin
     id 14 
     name lowerneck
     direction -0.0813151 0.981659 0.172436   
     length 1.8875   
     axis 0 0 0   XYZ
    dof rx ry rz
    limits (-20.0 45.0)
           (-30.0 30.0)
           (-30.0 30.0)
  end
  begin
     id 15 
     name upperneck
     direction 0.119359 0.955672 -0.269157   
     length 1.92801   
     axis 0 0 0   XYZ
    dof rx ry rz
    limits (-20.0 45.0)
           (-30.0 30.0)
           (-30.0 30.0)
  end
  begin
     id 16
     name head
     direction 0.0421007 0.992672 -0.113268  
     length 1.95809  
     axis 0 0 0   XYZ
    dof rx ry rz
    limits (-20.0 45.0)
           (-30.0 30.0)
           (-30.0 30.0)
  end
  begin
     id 17 
     name lclavicle
     direction 0.944093 0.32865 -0.0260136  
     length 3.84992  
     axis 0 0 0   XYZ
    dof ry rz
    limits (-20.0 10.0)
           (0.0 20.0)
  end
  begin
     id 18 
     name lhumerus
     direction 1 -4.48979e-011 -1.27712e-029   
     length 5.53593   
     axis 180 -30 -90   XYZ
    dof rx ry rz
    limits (-60.0 90.0)
           (-90.0 90.0)
           (-90.0 90.0)
  end
  begin
     id 19
     name lradius
     direction 1 -4.48966e-011 1.00051e-028   
     length 3.13345   
     axis 180 -30 -90   XYZ
    dof rx
    limits (-10.0 170.0)
  end
  begin
     id 20
     name lwrist
     direction 1 -4.4896e-011 2.56952e-028   
     length 1.56673   
     axis -5.12785e-016 90 90   XYZ
    dof ry
    limits (-180.0 0.0)
 end
  begin
     id 21 
     name lhand
     direction 1 -4.48934e-011 5.13905e-028   
     length 0.713374   
     axis -3.27915e-016 90 90   XYZ
    dof rx rz
    limits (-90.0 90.0)
           (-45.0 45.0)
  end
  begin
     id 22 
     name lfingers
     direction 1 -4.48973e-011 1.02781e-027   
     length 0.575141   
     axis -6.5583e-016 90 90   XYZ
    dof rx
    limits (0.0 90.0)
  end
  begin
     id 23
     name lthumb
     direction 0.707107 -6.34883e-011 0.707107   
     length 0.82579   
     axis -90 45 2.85299e-015   XYZ
    dof rx rz
    limits (-45.0 45.0)
           (-45.0 45.0)
  end
  begin
     id 24 
     name rclavicle
     direction -0.936895 0.34884 0.0232243   
     length 3.53304  
     axis 0 0 0   XYZ 
    dof ry rz
    limits (-10.0 20.0)
           (-20.0 0.0)
  end
  begin
     id 25 
     name rhumerus
     direction -1 -4.48965e-011 1.05514e-027  
     length 5.4685   
     axis 180 30 90   XYZ
    dof rx ry rz
    limits (-90.0 60.0)
           (-90.0 90.0)
           (-90.0 90.0)
  end
  begin
     id 26 
     name rradius
     direction -1 -4.48964e-011 -1.1079e-027   
     length 3.22411   
     axis 180 30 90   XYZ
    dof rx
    limits (-10.0 170.0)
  end
  begin
     id 27 
     name rwrist
     direction -1 -4.48973e-011 2.56952e-028   
     length 1.61206   
     axis -5.12785e-016 -90 -90   XYZ
    dof ry
    limits (-180.0 0.0)
  end
  begin
     id 28
     name rhand
     direction -1 -4.48957e-011 5.13905e-028   
     length 0.74528   
     axis -3.27915e-016 -90 -90   XYZ
    dof rx rz
    limits (-90.0 90.0)
           (-45.0 45.0)
  end
  begin
     id 29
     name rfingers
     direction -1 -4.4901e-011 1.02781e-027   
     length 0.600864   
     axis -6.5583e-016 -90 -90   XYZ
    dof rx
    limits (0.0 90.0)
  end
  begin
     id 30
     name rthumb
     direction -0.707107 -6.34972e-011 0.707107   
     length 0.862724   
     axis -90 -45 -2.85299e-015   XYZ
    dof rx rz
    limits (-45.0 45.0)
           (-45.0 45.0)
  end
:hierarchy
  begin
    root lhipjoint rhipjoint lowerback
    lhipjoint lfemur
    lfemur ltibia
    ltibia lfoot
    lfoot ltoes
    rhipjoint rfemur
    rfemur rtibia
    rtibia rfoot
    rfoot rtoes
    lowerback upperback
    upperback thorax
    thorax lowerneck lclavicle rclavicle
    lowerneck upperneck
    upperneck head
    lclavicle lhumerus
    lhumerus lradius
    lradius lwrist
    lwrist lhand lthumb
    lhand lfingers
    rclavicle rhumerus
    rhumerus rradius
    rradius rwrist
    rwrist rhand rthumb
    rhand rfingers
  end

#!OML:ASF G:\Work\Work\Patient Classification 1\Liu\Session 1\Liu.ASF
:FULLY-SPECIFIED
:DEGREES
243
root 10.4509 16.2365 -5.71885 5.06675 5.7768 5.87101
lowerback -0.0459828 -2.84881 -5.53513
upperback -0.256707 -3.80149 -0.834015
thorax 0.0641535 -1.89551 2.22179
lowerneck -24.845 -5.7177 -12.1615
upperneck 25.6793 -6.58728 10.3481
head 13.6274 -2.68081 4.91528
rclavicle -1.85242e-014 2.66371e-014
rhumerus -46.3459 21.2561 -93.7271
rradius 46.6624
rwrist -17.4221
rhand -15.9486 16.5324
rfingers 7.12502
rthumb 10.2497 -13.1979
lclavicle -1.85242e-014 2.66371e-014
lhumerus -23.0706 -17.505 84.2528
lradius 30.3519
lwrist 1.91253
lhand -15.2901 31.7068
lfingers 7.12502
lthumb 10.8849 61.4047
rfemur -37.2138 -2.46285 14.7086
rtibia 34.4439
rfoot -13.8703 -13.474
rtoes -11.5348
lfemur 0.397835 -2.42968 -30.8065
ltibia 19.1185
lfoot -18.4734 -5.69716
ltoes -0.465511
244
root 10.4398 16.2134 -5.50328 5.18633 5.86119 5.99018
lowerback -0.231625 -2.8437 -5.66322
upperback -0.28197 -3.78248 -0.885357
thorax 0.145369 -1.88739 2.23085
lowerneck -24.4857 -5.71309 -12.2837
upperneck 25.4837 -6.6837 10.7269
head 13.5092 -2.69264 5.06639
rclavicle -2.93083e-014 -2.32578e-014
rhumerus -46.4607 20.4299 -93.5032
rradius 46.277
rwrist -16.1237
rhand -15.0045 15.1359
rfingers 7.12502
rthumb 11.1604 -14.5473
lclavicle -2.93083e-014 -2.32578e-014
lhumerus -22.3054 -18.1362 83.9888
lradius 30.7287
lwrist 2.31871
lhand -15.4334 31.5305
lfingers 7.12502
lthumb 10.7467 61.2356
rfemur -37.184 -0.272296 13.4572
rtibia 31.5025
rfoot -14.5038 -14.3867
rtoes -10.7302
lfemur 2.01393 -2.56648 -30.8524
ltibia 17.6588
lfoot -18.5369 -5.68307
ltoes 0.501202
245
root 10.435 16.1753 -5.28253 5.24965 5.93388 6.34117
lowerback -0.441718 -2.87845 -5.97137
upperback -0.162234 -3.80709 -0.958245
thorax 0.403392 -1.90849 2.31024
lowerneck -24.8416 -5.81426 -12.6151
upperneck 25.6337 -6.80678 11.1703
head 13.6988 -2.71212 5.29133
rclavicle -1.83876e-014 -2.04748e-014
rhumerus -46.4048 19.8503 -93.2046
rradius 45.9919
rwrist -15.5975
rhand -14.3902 15.0959
rfingers 7.12502
rthumb 11.7529 -14.5543
lclavicle -1.83876e-014 -2.04748e-014
lhumerus -21.3637 -18.4644 83.6869
lradius 31.1367
lwrist 2.61925
lhand -15.6708 31.6435
lfingers 7.12502
lthumb 10.5177 61.3603
rfemur -37.2456 1.95987 11.7269
rtibia 28.9584
rfoot -15.3309 -15.239
rtoes -8.01397
lfemur 3.88022 -2.44312 -31.1605
ltibia 15.9423
lfoot -18.2316 -5.89645
ltoes 2.19937
246
root 10.4219 16.1267 -5.05838 5.31144 5.98879 6.4761
lowerback -0.520685 -2.92681 -6.20942
upperback -0.130074 -3.86283 -0.903797
thorax 0.504929 -1.94006 2.49076
lowerneck -25.5014 -5.95041 -13.0436
upperneck 26.0357 -6.90981 11.5796
head 14.0607 -2.73123 5.53935
rclavicle -2.30839e-014 -2.80286e-014
rhumerus -46.6879 19.7946 -93.4048
rradius 45.6162
rwrist -16.6415
rhand -15.2813 15.9407
rfingers 7.12502
rthumb 10.8934 -13.7567
lclavicle -2.30839e-014 -2.80286e-014
lhumerus -20.6734 -18.4667 83.4316
lradius 31.8318
lwrist 2.90925
lhand -15.941 31.8525
lfingers 7.12502
lthumb 10.2571 61.5824
rfemur -37.5814 5.07619 9.84383
rtibia 26.8773
rfoot -17.393 -16.8371
rtoes -1.37035
lfemur 5.7579 -2.14408 -31.1637
ltibia 14.0291
lfoot -17.5585 -6.55614
ltoes 6.95731
247
root 10.4061 16.0968 -4.83622 5.30874 6.28049 6.52299
lowerback -0.456351 -3.02255 -6.3055
upperback -0.217928 -3.9986 -0.898087
thorax 0.397275 -2.00311 2.55336
lowerneck -25.0816 -5.89517 -12.9674
upperneck 25.8024 -6.90923 11.6157
head 13.873 -2.72818 5.52854
rclavicle -3.70609e-014 -1.2921e-014
rhumerus -46.9974 18.9335 -93.1442
rradius 45.2769
rwrist -14.7701
rhand -14.6771 15.4444
rfingers 7.12502
rthumb 11.4762 -14.2214
lclavicle -3.70609e-014 -1.2921e-014
lhumerus -20.3394 -18.6181 83.1771
lradius 32.516
lwrist 3.011
lhand -16.2369 31.6333
lfingers 7.12502
lthumb 9.97164 61.3772
rfemur -38.0005 9.0724 7.53344
rtibia 25.2515
rfoot -20.7649 -19.391
rtoes 5.06632
lfemur 7.72338 -1.94302 -31.0135
ltibia 11.9624
lfoot -16.9374 -6.86807
ltoes 9.36307
248
root 10.3993 16.0832 -4.61538 5.36652 6.59562 6.73505
lowerback -0.607036 -3.13071 -6.40923
upperback -0.216004 -4.12957 -0.991367
thorax 0.495973 -2.07115 2.50266
lowerneck -24.3939 -5.79492 -12.7088
upperneck 25.3102 -6.8861 11.525
head 13.5057 -2.71958 5.4244
rclavicle 2.66496e-014 4.37326e-015
rhumerus -47.4709 18.4709 -93.3361
rradius 45.0546
rwrist -15.944
rhand -15.281 16.2892
rfingers 7.12502
rthumb 10.8938 -13.4082
lclavicle 2.66496e-014 4.37326e-015
lhumerus -19.8008 -18.7504 82.852
lradius 32.9131
lwrist 3.02184
lhand -16.5373 31.1318
lfingers 7.12502
lthumb 9.68176 60.8893
rfemur -38.6932 13.574 4.55724
rtibia 23.9723
rfoot -22.8187 -22.9655
rtoes 4.55133
lfemur 9.69667 -2.01681 -31.1288
ltibia 9.80227
lfoot -16.6881 -6.36549
ltoes 7.06086
249
root 10.3907 16.0631 -4.39574 5.58411 6.67588 6.87485
lowerback -0.939271 -3.19753 -6.57579
upperback -0.22982 -4.19082 -0.95953
thorax 0.687714 -2.10715 2.60553
lowerneck -24.5831 -5.80838 -12.9453
upperneck 25.4982 -6.89518 11.8124
head 13.6488 -2.70567 5.59412
rclavicle -1.22501e-014 2.24627e-014
rhumerus -47.6792 18.0511 -93.239
rradius 44.8659
rwrist -16.1454
rhand -15.3615 16.2622
rfingers 7.12502
rthumb 10.8161 -13.4393
lclavicle -1.22501e-014 2.24627e-014
lhumerus -19.0104 -18.5764 82.594
lradius 33.1784
lwrist 3.26418
lhand -16.6012 31.2753
lfingers 7.12502
lthumb 9.62009 61.0357
rfemur -39.2129 13.7745 3.6933
rtibia 22.8531
rfoot -22.5058 -22.3544
rtoes 3.34854
lfemur 11.4059 -1.8934 -31.1562
ltibia 7.84197
lfoot -16.1892 -6.19146
ltoes 7.12058
250
root 10.3801 16.0473 -4.16567 5.69935 6.83009 7.07448
lowerback -1.19283 -3.29018 -6.8377
upperback -0.256212 -4.29109 -0.92914
thorax 0.833416 -2.16146 2.76281
lowerneck -24.9946 -5.86105 -13.0706
upperneck 25.9073 -6.9321 11.8984
head 13.9221 -2.71482 5.66767
rclavicle -4.20057e-014 2.38542e-015
rhumerus -47.9558 17.5058 -93.0609
rradius 44.5353
rwrist -15.6355
rhand -15.4395 16.4509
rfingers 7.12502
rthumb 10.7408 -13.2545
lclavicle -4.20057e-014 2.38542e-015
lhumerus -18.3675 -18.2925 82.4165
lradius 33.4684
lwrist 3.44443
lhand -16.4212 31.7578
lfingers 7.12502
lthumb 9.79377 61.5101
rfemur -39.534 13.9379 2.94199
rtibia 21.8844
rfoot -23.0403 -22.2355
rtoes 3.02108
lfemur 13.3249 -1.83136 -31.228
ltibia 5.7088
lfoot -15.5593 -5.46006
ltoes 5.87428
251
root 10.3723 16.0425 -3.92992 5.70018 6.97145 7.28946
lowerback -1.35912 -3.34448 -6.94847
upperback -0.266265 -4.34725 -1.01278
thorax 0.923436 -2.19189 2.72565
lowerneck -25.0467 -5.90807 -13.0345
upperneck 26.0393 -7.01011 11.8623
head 13.9986 -2.74943 5.6374
rclavicle -5.67903e-014 -1.33186e-014
rhumerus -48.2116 16.8587 -92.9184
rradius 44.1429
rwrist -15.0277
rhand -15.0802 16.1564
rfingers 7.12502
rthumb 11.0874 -13.5308
lclavicle -5.67903e-014 -1.33186e-014
lhumerus -17.9778 -18.0479 82.1981
lradius 33.8403
lwrist 3.50569
lhand -16.0238 32.8452
lfingers 7.12502
lthumb 10.1772 62.5791
rfemur -39.5359 14.1627 2.32387
rtibia 21.1916
rfoot -24.0591 -22.027
rtoes 3.16866
lfemur 17.3833 -1.71878 -31.428
ltibia 3.18055e-015
lfoot -13.8657 -2.92295
ltoes -3.1955
252
root 10.3627 16.0246 -3.70447 5.79059 6.97678 7.41305
lowerback -1.59977 -3.35736 -7.0014
upperback -0.242368 -4.34094 -1.05465
thorax 1.08307 -2.19403 2.69571
lowerneck -24.6948 -5.84564 -13.3633
upperneck 25.7234 -6.95728 12.3389
head 13.8219 -2.70512 5.89057
rclavicle 3.20416e-014 7.7526e-015
rhumerus -48.26 16.4509 -92.8647
rradius 43.2257
rwrist -13.5777
rhand -15.7616 17.089
rfingers 7.12502
rthumb 10.4301 -12.6323
lclavicle 3.20416e-014 7.7526e-015
lhumerus -17.4991 -17.8885 81.9666
lradius 34.2406
lwrist 3.80698
lhand -24.0243 18.4362
lfingers 7.12502
lthumb 2.45387 48.4018
rfemur -39.6082 14.5178 1.87281
rtibia 20.7282
rfoot -24.7396 -21.9791
rtoes 3.05699
lfemur 18.2249 -1.50341 -31.4425
ltibia 6.36111e-015
lfoot -13.7505 -2.08682
ltoes -7.36272
253
root 10.3491 15.9825 -3.48362 5.90811 6.93682 7.60972
lowerback -1.87763 -3.37894 -7.2632
upperback -0.177802 -4.33631 -1.04806
thorax 1.32514 -2.20166 2.8264
lowerneck -23.9167 -5.72397 -13.8829
upperneck 24.887 -6.84185 13.1028
head 13.3536 -2.62442 6.27786
rclavicle -3.57191e-014 -1.37161e-014
rhumerus -48.133 16.1086 -92.7287
rradius 42.6504
rwrist -13.3384
rhand -15.8902 17.1376
rfingers 7.12502
rthumb 10.306 -12.5899
lclavicle -3.57191e-014 -1.37161e-014
lhumerus -16.9248 -17.6711 81.7789
lradius 34.7292
lwrist 4.20019
lhand -20.5911 28.4808
lfingers 7.12502
lthumb 5.76911 58.3822
rfemur -39.6597 14.9348 1.44646
rtibia 20.4733
rfoot -24.6476 -22.2968
rtoes 2.5371
lfemur 19.0035 -1.28219 -31.4221
ltibia 3.18055e-014
lfoot -12.8996 -1.89279
ltoes -3.03323
